<svg height="36" viewBox="0 0 44 36" width="44" xmlns="http://www.w3.org/2000/svg"><path d="m135.80724 22.2447199-19.63939-5.4040419v-3.5389831c3.094159-.4881356 5.569486-3.2949152 5.569486-6.58983049 0-3.66101695-3.094159-6.71186441-6.807149-6.71186441-2.095246 0-3.398726.51265984-4.655054 2.01708522h4.655054c2.35156 0 4.331822 2.37613512 4.331822 4.69477919 0 2.31864406-1.980262 4.27118639-4.331822 4.27118639-.618832 0-1.113897.3661017-1.237664.9762712v4.881356l-21.4115772 5.8576271c-.0570195.0031234-.1153362.0072061-.1748464.0122788.1647215.8785566.3155057 1.6587047.4523525 2.3404442l21.8283091-5.8917061 21.447211 5.7888432c.01034-.807078.001429-1.7082264-.026732-2.7034453zm-2.845522 13.7552801h-35.7099187c-.4726941-.8898783-.9029495-1.7034377-1.2907662-2.440678h37.9633849c-.285205.7443859-.606105 1.5579452-.9627 2.440678z" fill="#2ba6c8" transform="translate(-92)"/></svg>