<?xml version="1.0" encoding="UTF-8"?>
<svg width="222px" height="30px" viewBox="0 0 222 30" version="1.1" xmlns="http://www.w3.org/2000/svg" xmlns:xlink="http://www.w3.org/1999/xlink">
    <!-- Generator: Sketch 55.2 (78181) - https://sketchapp.com -->
    <title>Group</title>
    <desc>Created with Sketch.</desc>
    <g id="Page-1" stroke="none" stroke-width="1" fill="none" fill-rule="evenodd">
        <g id="Artboard" transform="translate(-378.000000, -151.000000)">
            <g id="Group" transform="translate(378.000000, 151.000000)">
                <path d="M0,13.8474114 C0,6.0653951 5.98875427,0 13.9480019,0 C20.6708615,0 23.9550171,3.43324251 23.9550171,3.43324251 L21.0958699,7.01907357 C21.0958699,7.01907357 18.2367227,4.61580381 14.0639132,4.61580381 C9.31154696,4.61580381 5.25464891,8.31607629 5.25464891,13.8092643 C5.25464891,19.7220708 9.35018408,23.346049 14.2570989,23.346049 C18.6230939,23.346049 21.2117812,20.5231608 21.2117812,20.5231608 L21.2117812,18.5013624 C21.2117812,17.9291553 20.9026842,17.6621253 20.3617645,17.6621253 L18.7003682,17.6621253 L18.7003682,13.4277929 L23.1436375,13.4277929 C24.9982194,13.4277929 25.7709619,14.1907357 25.7709619,15.9836512 L25.7709619,27.5422343 L21.443604,27.5422343 L21.443604,26.2452316 C21.443604,25.6730245 21.4822411,25.1008174 21.4822411,25.1008174 L21.4049669,25.1008174 C21.4049669,25.1008174 18.4685454,28 13.3298079,28 C6.14330276,28 0,22.5831063 0,13.8474114 Z M26.6170159,21.9346049 C26.6170159,15.8310627 35.1171832,15.3351499 38.3240645,15.3351499 L38.9422585,15.3351499 L38.9422585,15.1825613 C38.9422585,12.3978202 37.8217819,11.3678474 35.3103688,11.3678474 C34.421715,11.3678474 32.6830444,11.5967302 32.6830444,12.6648501 L32.6830444,13.6948229 L28.1238637,13.6948229 L28.1238637,11.6348774 C28.1238637,8.01089918 33.3012384,7.62942779 35.349006,7.62942779 C41.9173171,7.62942779 43.8491733,11.0245232 43.8491733,15.373297 L43.8491733,22.6212534 C43.8491733,23.1553134 44.1582703,23.4604905 44.69919,23.4604905 L46.244675,23.4604905 L46.244675,27.5422343 L41.8400428,27.5422343 C40.024098,27.5422343 39.3286298,26.5504087 39.3286298,25.4059946 C39.3286298,24.9100817 39.3672669,24.5667575 39.3672669,24.5667575 L39.2899926,24.5667575 C39.2899926,24.5667575 37.7831448,28 33.3398755,28 C29.8238972,28 26.6170159,25.8256131 26.6170159,21.9346049 Z M31.5625678,21.7057221 C31.5625678,23.0027248 32.5284959,24.2234332 34.5376263,24.2234332 C37.1649508,24.2234332 39.0195328,21.4768392 39.0195328,19.1117166 L39.0195328,18.653951 L38.169516,18.653951 C35.6194658,18.653951 31.5625678,18.9972752 31.5625678,21.7057221 Z M47.5543745,27.5422343 L47.5543745,5.41689373 C47.5543745,4.84468665 47.2452775,4.57765668 46.7043577,4.57765668 L45.1588727,4.57765668 L45.1588727,0.457765668 L49.8339648,0.457765668 C51.6499096,0.457765668 52.4612892,1.25885559 52.4612892,3.05177112 L52.4612892,8.69754768 C52.4612892,9.65122616 52.384015,10.3378747 52.384015,10.3378747 L52.4612892,10.3378747 C52.4612892,10.3378747 54.1999598,7.62942779 58.3727693,7.62942779 C63.7046924,7.62942779 67.1047594,11.7874659 67.1047594,17.8147139 C67.1047594,23.9945504 63.279684,28 58.0636723,28 C53.9681371,28 52.1908294,25.253406 52.1908294,25.253406 L52.1135551,25.253406 C52.1135551,25.253406 52.1908294,25.7874659 52.1908294,26.5504087 L52.1908294,27.5422343 L47.5543745,27.5422343 Z M52.3067407,17.9291553 C52.3067407,20.9427793 53.9295,23.9182561 57.2136555,23.9182561 C59.8796171,23.9182561 62.1592074,21.7438692 62.1592074,17.8910082 C62.1592074,14.1907357 60.150077,11.7874659 57.2522927,11.7874659 C54.7022425,11.7874659 52.3067407,13.6185286 52.3067407,17.9291553 Z M69.4962983,4.92098093 L69.4962983,0.457765668 L73.746382,0.457765668 L73.746382,4.92098093 L69.4962983,4.92098093 Z M69.2644755,24.9482289 L69.2644755,13.0463215 C69.2644755,12.4741144 68.9553785,12.2070845 68.4144588,12.2070845 L66.8689738,12.2070845 L66.8689738,8.08719346 L71.5440659,8.08719346 C73.3600107,8.08719346 74.1327532,8.88828338 74.1327532,10.6811989 L74.1327532,22.6212534 C74.1327532,23.1553134 74.4418502,23.4604905 74.9827699,23.4604905 L76.5282549,23.4604905 L76.5282549,27.5422343 L71.8531629,27.5422343 C70.037218,27.5422343 69.2644755,26.7792916 69.2644755,24.9482289 Z M86.3341589,20.4850136 L86.3341589,11.2152589 L83.7841087,11.2152589 L83.7841087,8.23978202 L86.4114332,8.23978202 L86.4114332,2.9373297 L90.08196,2.9373297 L90.08196,8.23978202 L94.757052,8.23978202 L94.757052,11.2152589 L90.08196,11.2152589 L90.08196,20.0653951 C90.08196,23.9182561 92.7865587,24.4141689 94.2161323,24.4141689 C94.757052,24.4141689 95.1047861,24.3378747 95.1047861,24.3378747 L95.1047861,27.6185286 C95.1047861,27.6185286 94.6025035,27.6948229 93.7911239,27.6948229 C91.3183479,27.6948229 86.3341589,26.9318801 86.3341589,20.4850136 Z M96.8781311,27.5422343 L96.8781311,4.61580381 C96.8781311,4.04359673 96.5690341,3.77656676 96.0281143,3.77656676 L94.4439922,3.77656676 L94.4439922,0.610354223 L98.1531562,0.610354223 C99.8918268,0.610354223 100.625932,1.33514986 100.625932,2.97547684 L100.625932,10.4904632 C100.625932,11.4059946 100.548658,12.0926431 100.548658,12.0926431 L100.625932,12.0926431 C101.475949,10.2234332 103.987362,7.78201635 107.889711,7.78201635 C112.487529,7.78201635 114.573934,10.2615804 114.573934,15.1825613 L114.573934,23.5367847 C114.573934,24.1089918 114.883031,24.3760218 115.423951,24.3760218 L117.008073,24.3760218 L117.008073,27.5422343 L113.337546,27.5422343 C111.598875,27.5422343 110.86477,26.8174387 110.86477,25.1008174 L110.86477,16.0217984 C110.86477,13.3133515 110.285213,11.1771117 107.155606,11.1771117 C104.180548,11.1771117 101.785046,13.1607629 100.973666,15.9455041 C100.703206,16.7084469 100.625932,17.5858311 100.625932,18.5013624 L100.625932,27.5422343 L96.8781311,27.5422343 Z M116.695013,17.8910082 C116.695013,11.7493188 120.945097,7.78201635 126.508843,7.78201635 C131.995314,7.78201635 134.931736,11.8256131 134.931736,16.8228883 C134.931736,17.3188011 134.815824,18.3487738 134.815824,18.3487738 L120.558725,18.3487738 C120.790548,22.4686649 123.804244,24.7956403 127.281585,24.7956403 C130.643015,24.7956403 132.99988,22.5449591 132.99988,22.5449591 L134.622639,25.1771117 C134.622639,25.1771117 131.724854,28 127.088399,28 C120.90646,28 116.695013,23.613079 116.695013,17.8910082 Z M120.713274,15.640327 L131.068023,15.640327 C130.952112,12.4359673 128.904344,10.719346 126.470206,10.719346 C123.611058,10.719346 121.292831,12.4359673 120.713274,15.640327 Z M143.114881,13.8474114 C143.114881,6.0653951 149.103635,0 157.062882,0 C163.785742,0 167.069898,3.43324251 167.069898,3.43324251 L164.21075,7.01907357 C164.21075,7.01907357 161.351603,4.61580381 157.178794,4.61580381 C152.426427,4.61580381 148.369529,8.31607629 148.369529,13.8092643 C148.369529,19.7220708 152.465065,23.346049 157.371979,23.346049 C161.737974,23.346049 164.326662,20.5231608 164.326662,20.5231608 L164.326662,18.5013624 C164.326662,17.9291553 164.017565,17.6621253 163.476645,17.6621253 L161.815249,17.6621253 L161.815249,13.4277929 L166.258518,13.4277929 C168.1131,13.4277929 168.885842,14.1907357 168.885842,15.9836512 L168.885842,27.5422343 L164.558485,27.5422343 L164.558485,26.2452316 C164.558485,25.6730245 164.597122,25.1008174 164.597122,25.1008174 L164.519847,25.1008174 C164.519847,25.1008174 161.583426,28 156.444688,28 C149.258183,28 143.114881,22.5831063 143.114881,13.8474114 Z M169.693259,17.8147139 C169.693259,11.8637602 174.484263,7.62942779 180.473017,7.62942779 C186.500408,7.62942779 191.291412,11.8637602 191.291412,17.8147139 C191.291412,23.8038147 186.500408,28 180.473017,28 C174.484263,28 169.693259,23.8038147 169.693259,17.8147139 Z M174.638811,17.8147139 C174.638811,21.4386921 177.304773,23.880109 180.473017,23.880109 C183.679898,23.880109 186.34586,21.4386921 186.34586,17.8147139 C186.34586,14.2288828 183.679898,11.7493188 180.473017,11.7493188 C177.304773,11.7493188 174.638811,14.2288828 174.638811,17.8147139 Z M191.1329,21.9346049 C191.1329,15.8310627 199.633068,15.3351499 202.839949,15.3351499 L203.458143,15.3351499 L203.458143,15.1825613 C203.458143,12.3978202 202.337667,11.3678474 199.826253,11.3678474 C198.9376,11.3678474 197.198929,11.5967302 197.198929,12.6648501 L197.198929,13.6948229 L192.639748,13.6948229 L192.639748,11.6348774 C192.639748,8.01089918 197.817123,7.62942779 199.864891,7.62942779 C206.433202,7.62942779 208.365058,11.0245232 208.365058,15.373297 L208.365058,22.6212534 C208.365058,23.1553134 208.674155,23.4604905 209.215075,23.4604905 L210.76056,23.4604905 L210.76056,27.5422343 L206.355927,27.5422343 C204.539983,27.5422343 203.844514,26.5504087 203.844514,25.4059946 C203.844514,24.9100817 203.883151,24.5667575 203.883151,24.5667575 L203.805877,24.5667575 C203.805877,24.5667575 202.299029,28 197.85576,28 C194.339782,28 191.1329,25.8256131 191.1329,21.9346049 Z M196.078452,21.7057221 C196.078452,23.0027248 197.04438,24.2234332 199.053511,24.2234332 C201.680835,24.2234332 203.535417,21.4768392 203.535417,19.1117166 L203.535417,18.653951 L202.685401,18.653951 C200.13535,18.653951 196.078452,18.9972752 196.078452,21.7057221 Z M212.302082,20.4087193 L212.302082,11.9400545 L209.752032,11.9400545 L209.752032,8.08719346 L212.417993,8.08719346 L212.417993,2.78474114 L217.208997,2.78474114 L217.208997,8.08719346 L221.690903,8.08719346 L221.690903,11.9400545 L217.208997,11.9400545 L217.208997,19.7983651 C217.208997,23.0027248 219.759047,23.4604905 221.111346,23.4604905 C221.652266,23.4604905 222,23.3841962 222,23.3841962 L222,27.6185286 C222,27.6185286 221.381806,27.73297 220.493152,27.73297 C217.749916,27.73297 212.302082,26.9318801 212.302082,20.4087193 Z" id="GabitheGoat" fill="#FFFFFF" fill-rule="nonzero"></path>
                <g id="logo" transform="translate(169.000000, 8.000000)">
                    <path d="M22,11 C22,17.0963571 17.0245699,22 11.0124619,22 C4.97543015,22 0,17.1230714 0,11 C0,4.82428571 4.97543015,0 11.0132408,0 C17.0245699,0 21.9992211,4.85021429 21.9992211,11 L22,11 Z" id="Shape" fill="#FFFFFF"></path>
                    <path d="M17.2893861,10.1624286 C16.1296467,8.98621429 14.8694328,7.92785714 13.6497203,6.81921429 C12.9534093,6.18671429 12.3521207,6.28414286 11.4984777,6.10421429 C10.7935991,5.95492857 9.85895348,5.59035714 9.16186363,5.75378571 C8.26616158,5.96357143 7.53012816,6.03978571 6.81200878,6.61257143 C6.48955604,6.87028571 4.8165404,7.97892857 5.05643277,8.54542857 C5.20987042,8.90921429 6.85951993,7.61278571 7.19054025,7.42657143 C7.90242866,7.02585714 8.86121929,7.18928571 9.52559654,7.52635714 C8.68597324,8.46135714 8.14154217,9.36021429 7.69057566,10.5356429 C7.26998513,11.6317143 6.68427388,12.3938571 5.75196488,13.0656429 C6.69284146,13.5048571 7.51377186,13.7963571 8.22643914,14.5467143 L10.8870637,17.3501429 C11.2515754,16.3483571 11.4501876,15.5563571 11.5646817,14.4964286 C11.6005098,14.1538571 12.2017985,13.6973571 12.3793812,13.387 C12.58033,13.0357857 12.356015,12.5022857 12.9837853,12.4488571 C13.4290308,12.4060104 13.8777692,12.4173538 14.3203285,12.4826429 C14.668484,12.5321429 15.4520286,12.5085714 15.7121716,12.705 C16.491043,13.2942857 15.9388232,14.7077857 16.6764144,15.2412857 C16.7200312,14.6307857 16.7909084,14.0218571 16.8804787,13.4184286 C16.9100758,13.2204286 17.2029314,12.6028571 17.1156978,12.4402143 C16.9560292,12.1416429 16.3991362,12.2885714 16.2464774,11.8760714 C16.8111591,12.0316429 17.2963959,12.4142857 17.5876938,11.7888571 C17.8384904,11.2482857 17.4802096,10.6456429 17.2893861,10.1624286 L17.2893861,10.1624286 Z" id="Path" fill="#FD64A0"></path>
                </g>
            </g>
        </g>
    </g>
</svg>