<svg height="346.667" viewBox="0 0 260 260" width="346.667" xmlns="http://www.w3.org/2000/svg"><path d="m115 .7c-32.1 4.8-57.4 17.4-78.3 38.8-24.5 25.1-37 57.4-36.2 93.5.2 8 .6 15.8 1 17.5 2.1 10.1 2.8 12.8 5.1 20 6 18.9 16.2 35.3 31.3 50.6 19.2 19.3 40.4 30.8 67.2 36.5 11.7 2.5 38.1 2.5 49.7 0 20.1-4.3 37.5-12 52.7-23.4 5.7-4.3 19.6-17.7 24.1-23.3 12.2-15.1 23.4-39.2 26-56.4.3-2.2 1-6 1.4-8.5.8-4.5.6-29.8-.4-35.7-7.5-46.5-38.8-85.1-82.6-101.8-7.4-2.8-13.5-4.5-26.5-7.1-3.5-.7-30.8-1.2-34.5-.7zm5.3 67.7c2.6.4 5.9 1.1 7.2 1.6 2.7 1 5.6 1.7 11.5 2.6 9.5 1.4 14.7 2.8 17.9 4.9 3.8 2.4 31.4 26.9 41.7 37 9.2 9 12.5 19.5 8.3 26.4-1.2 2-2 2.2-5.9 1.8-2.5-.3-5.6-.9-7-1.2-2.5-.7-2.5-.7-.4.8 1.1.9 3.3 1.9 4.8 2.3 3.8.9 4.5 3.7 2.5 9.8-1 2.8-2 8-2.4 11.6-.3 3.6-.8 7.4-1 8.5s-.4 2.9-.4 4c-.1 1.9-.3 1.8-2-.5-1.8-2.2-2.6-5.6-3.7-14.5-.9-6.7-3.4-12.3-6.2-13.4-3.7-1.5-16.1-3-25.2-3.1-9.1 0-11.5 1.3-12.5 6.9-.4 2.7-2.2 5.7-5.5 9.5-4.3 4.9-4.9 6.2-6 12.8-1.4 8.9-4.5 21.4-6.3 25.6l-1.3 3.1-9.4-10.1c-25.4-27.1-27.7-29-39.5-34.8l-11-5.3 7.6-7.6c5.7-5.7 8.5-9.5 11.1-15.1 2-4.1 5.6-11.8 8.1-17.1s7.3-13.3 10.7-17.8c3.4-4.6 6-8.4 5.8-8.6-1.7-1.3-10.6-3.3-15.4-3.3-6.4 0-10.6 1.7-18.4 7.3-8.7 6.3-15.9 9.8-17.4 8.6-.8-.7-1.2-2-.9-3.1 1.5-5.5 22.4-22.5 31.5-25.6 6.5-2.2 20.8-5.2 22.8-4.9.8.2 3.6.6 6.3.9z"/></svg>